<svg width="500" height="500" viewBox="0 0 500 500" fill="none" xmlns="http://www.w3.org/2000/svg">
  <rect width="500" height="500" fill="#E5E7EB"/>
  <path d="M250 150C216.863 150 190 176.863 190 210C190 243.137 216.863 270 250 270C283.137 270 310 243.137 310 210C310 176.863 283.137 150 250 150ZM235 190V230L270 210L235 190Z" fill="#1200FF"/>
  <path d="M250 290C196.98 290 155 331.98 155 385H165C165 337.533 203.533 299 251 299C298.467 299 337 337.533 337 385H347C347 331.98 305.02 290 252 290H250Z" fill="#1200FF"/>
</svg> 